<svg xmlns="http://www.w3.org/2000/svg" width="41" height="39" viewBox="0 0 41 39" fill="none">
  <path d="M20.5 0C31.8246 0 41 8.72782 41 19.5C41 30.2722 31.8246 39 20.5 39C9.1754 39 0 30.2722 0 19.5C0 8.72782 9.1754 0 20.5 0ZM18.1111 11.2911L24.352 16.9839H9.25806C8.15867 16.9839 7.27419 17.8252 7.27419 18.871V20.129C7.27419 21.1748 8.15867 22.0161 9.25806 22.0161H24.352L18.1111 27.7089C17.3093 28.4401 17.2927 29.6589 18.078 30.4058L18.9873 31.2629C19.7643 32.002 21.0208 32.002 21.7895 31.2629L32.7587 20.8367C33.5357 20.0976 33.5357 18.9024 32.7587 18.1712L21.7895 7.72923C21.0125 6.99012 19.756 6.99012 18.9873 7.72923L18.078 8.58629C17.2927 9.34113 17.3093 10.5599 18.1111 11.2911Z" fill="black"/>
</svg>